<?xml version="1.0" encoding="utf-8"?>
<!-- Generator: Adobe Illustrator 22.1.0, SVG Export Plug-In . SVG Version: 6.00 Build 0)  -->
<svg version="1.1" id="Layer_1" xmlns="http://www.w3.org/2000/svg" xmlns:xlink="http://www.w3.org/1999/xlink" x="0px" y="0px"
	 viewBox="0 0 1000 1000" style="enable-background:new 0 0 1000 1000;" xml:space="preserve" witdh="1000" height="1000">
<style type="text/css">
	.st0{fill:#EC8223;}
	.st1{fill:#5FCBEA;}
	.st2{fill:#D36F28;}
	.st3{fill:#D1D3D4;}
	.st4{fill:none;stroke:#A7A9AC;stroke-linecap:round;stroke-linejoin:round;stroke-miterlimit:10;}
</style>
<g>
	<g>
		<g>
			<polygon class="st0" points="754.6,181 538.3,181 314.4,503.3 538.3,825.7 754.6,825.7 978.5,503.3 			"/>
		</g>
	</g>
	<g>
		<g>
			<polygon class="st1" points="459.6,181 247.3,181 23.5,503.3 247.3,825.7 459.6,825.7 235.8,503.3 			"/>
		</g>
	</g>
	<g>
		<g>
			<polygon class="st2" points="745.3,181 533,181 309.1,503.3 533,825.7 745.3,825.7 521.4,503.3 			"/>
		</g>
	</g>
	<g>
		<g>
			<path class="st3" d="M747.7,830.5H538.3c-1.6,0-3-0.8-3.9-2L310.5,506.1c-1.1-1.6-1.1-3.8,0-5.4l223.8-322.4c0.9-1.3,2.3-2,3.9-2
				h209.5c1.8,0,3.4,1,4.2,2.6c0.8,1.6,0.7,3.5-0.3,4.9l-222,319.7l222,319.7c1,1.5,1.1,3.4,0.3,4.9
				C751.1,829.5,749.5,830.5,747.7,830.5z M540.8,821h197.9L520,506.1c-1.1-1.6-1.1-3.8,0-5.4l218.6-314.9H540.8L320.2,503.4
				L540.8,821z"/>
		</g>
	</g>
	<g>
		<g>
			<path class="st3" d="M462.1,830.5H252.7c-1.6,0-3-0.8-3.9-2L24.9,506.1c-1.1-1.6-1.1-3.8,0-5.4l223.8-322.4c0.9-1.3,2.3-2,3.9-2
				h209.5c1.8,0,3.4,1,4.2,2.6c0.8,1.6,0.7,3.5-0.3,4.9l-222,319.7L466,823c1,1.5,1.1,3.4,0.3,4.9
				C465.5,829.5,463.9,830.5,462.1,830.5z M255.1,821H453L234.4,506.1c-1.1-1.6-1.1-3.8,0-5.4L453,185.7H255.1L34.6,503.4L255.1,821
				z"/>
		</g>
	</g>
	<g>
		<g>
			<path class="st3" d="M752.4,830.5H542.9c-2.6,0-4.8-2.1-4.8-4.8c0-2.6,2.1-4.8,4.8-4.8h207l220.5-317.6L749.9,185.7h-207
				c-2.6,0-4.8-2.1-4.8-4.8c0-2.6,2.1-4.8,4.8-4.8h209.5c1.6,0,3,0.8,3.9,2l223.8,322.4c1.1,1.6,1.1,3.8,0,5.4L756.3,828.4
				C755.4,829.7,754,830.5,752.4,830.5z"/>
		</g>
	</g>
	<g>
		<g>
			<path class="st3" d="M238.3,508.1H28.8c-2.6,0-4.8-2.1-4.8-4.8c0-2.6,2.1-4.8,4.8-4.8h209.5c2.6,0,4.8,2.1,4.8,4.8
				C243,506,240.9,508.1,238.3,508.1z"/>
		</g>
	</g>
	<g>
		<g>
			<path class="st3" d="M523.9,508.1H314.4c-2.6,0-4.8-2.1-4.8-4.8c0-2.6,2.1-4.8,4.8-4.8h209.5c2.6,0,4.8,2.1,4.8,4.8
				C528.7,506,526.5,508.1,523.9,508.1z"/>
		</g>
	</g>
	<g>
		<g>
			<path class="st3" d="M638.1,670c-0.9,0-1.9-0.3-2.7-0.9c-2.2-1.5-2.7-4.5-1.2-6.6l223.8-322.4c1.5-2.2,4.5-2.7,6.6-1.2
				c2.2,1.5,2.7,4.5,1.2,6.6L642.1,667.9C641.1,669.2,639.7,670,638.1,670z"/>
		</g>
	</g>
	<g>
		<g>
			<path class="st3" d="M349.7,670H143.1c-2.6,0-4.8-2.1-4.8-4.8c0-2.6,2.1-4.8,4.8-4.8h206.7c2.6,0,4.8,2.1,4.8,4.8
				C354.5,667.8,352.4,670,349.7,670z"/>
		</g>
	</g>
	<g>
		<g>
			<path class="st3" d="M356,336.7H149.3c-2.6,0-4.8-2.1-4.8-4.8s2.1-4.8,4.8-4.8H356c2.6,0,4.8,2.1,4.8,4.8S358.7,336.7,356,336.7z
				"/>
		</g>
	</g>
	<g>
		<g>
			<path class="st3" d="M635.4,670H428.7c-2.6,0-4.8-2.1-4.8-4.8c0-2.6,2.1-4.8,4.8-4.8h206.7c2.6,0,4.8,2.1,4.8,4.8
				C640.1,667.8,638,670,635.4,670z"/>
		</g>
	</g>
	<g>
		<g>
			<path class="st3" d="M641.6,336.7H435c-2.6,0-4.8-2.1-4.8-4.8s2.1-4.8,4.8-4.8h206.7c2.6,0,4.8,2.1,4.8,4.8
				S644.3,336.7,641.6,336.7z"/>
		</g>
	</g>
	<g>
		<g>
			<path class="st4" d="M847.6,825.7"/>
		</g>
	</g>
	<g>
		<g>
			<path class="st3" d="M871.5,660.4c-1.5,0-3-0.7-3.9-2L643.8,336c-1.5-2.2-1-5.1,1.2-6.6c2.2-1.5,5.1-1,6.6,1.2L875.4,653
				c1.5,2.2,1,5.1-1.2,6.6C873.4,660.2,872.4,660.4,871.5,660.4z"/>
		</g>
	</g>
</g>
</svg>
