<?xml version="1.0" encoding="utf-8"?>
<!-- Generator: Adobe Illustrator 22.1.0, SVG Export Plug-In . SVG Version: 6.00 Build 0)  -->
<svg version="1.1" id="Layer_1" xmlns="http://www.w3.org/2000/svg" xmlns:xlink="http://www.w3.org/1999/xlink" x="0px" y="0px"
	 viewBox="0 0 1167 262.6" style="enable-background:new 0 0 1167 262.6;" xml:space="preserve" width="1167" height="262.6">
<style type="text/css">
	.st0{fill:#EC8223;}
	.st1{fill:#5FCBEA;}
	.st2{fill:#D36F28;}
	.st3{fill:#D1D3D4;}
	.st4{fill:none;stroke:#A7A9AC;stroke-linecap:round;stroke-linejoin:round;stroke-miterlimit:10;}
</style>
<g>
	<g>
		<g>
			<path class="st0" d="M339,108.9c-6.5,0-11.3,2.2-11.3,7.7c0,14.3,41.2,6.5,41,34.6c0,15.9-14.1,23-29.7,23
				c-11.3,0-23.4-3.8-31.1-10.8l6-11.9c6.7,6,17.5,9.6,25.9,9.6c7.1,0,12.7-2.5,12.7-8.3c0-15.9-40.7-7-40.6-34.9
				c0-15.7,13.7-22.4,28.5-22.4c9.7,0,20.1,2.9,27.1,7.9l-6.1,12.4C354.5,111.5,345.9,108.9,339,108.9z"/>
		</g>
	</g>
	<g>
		<g>
			<path class="st0" d="M418,110.4c-13.4,0-23,10-23,24.7c0,14.7,9.6,24.7,23,24.7c9.7,0,17.6-3.2,22.8-9.3l9.3,9.3
				c-7,9.2-18.2,14.4-32.9,14.4c-23,0-39-15.9-39-39.1c0-23.4,16-39.4,39-39.4c14,0,24.9,4.5,32,12.7l-9.2,10.8
				C434.7,113.6,427.3,110.2,418,110.4z"/>
		</g>
	</g>
	<g>
		<g>
			<path class="st0" d="M484.2,96.3v77.4h-16.6V96.3H484.2z"/>
		</g>
	</g>
	<g>
		<g>
			<path class="st0" d="M539.4,138.1L526.3,152v21.7h-16.7V65.7h16.7v65.2l34.2-34.6h19.2l-28.7,30l30.8,47.4h-19.8L539.4,138.1z"/>
		</g>
	</g>
	<g>
		<g>
			<path class="st0" d="M612,96.3v77.4h-16.6V96.3H612z"/>
		</g>
	</g>
	<g>
		<g>
			<path class="st0" d="M825.9,135.2c0,23.1-14.5,39-36.7,39c-12.4,0-21.7-4.9-27.3-14v13.4h-16.7V65.7h16.7v43.9
				c5.7-9,15-14,27.1-14C811,95.7,825.9,111.7,825.9,135.2z M809.1,134.7c0-14.4-9.7-25-23.6-25c-13.8,0-23.6,10.5-23.6,25
				c0,15,9.7,25.3,23.6,25.3C799.3,160,809.1,149.5,809.1,134.7z"/>
		</g>
	</g>
	<g>
		<g>
			<path class="st0" d="M913.6,96.3v77.4h-16.7v-15.1c-5.2,10.8-15,15.6-27.6,15.7c-17.7,0-28.4-11.3-28.4-29.8V96.3h16.7v43.5
				c0,11.6,6.8,18.8,18,18.8c13.4-0.3,21.2-10.6,21.2-24.1V96.3H913.6z"/>
		</g>
	</g>
	<g>
		<g>
			<path class="st0" d="M954.9,96.3v77.4h-16.6V96.3H954.9z"/>
		</g>
	</g>
	<g>
		<g>
			<path class="st0" d="M1002,159.1c2.3,0,4.8-0.9,7.7-2.5l2.3,13.7c-4.9,2.8-9.9,4.1-14.5,4.1c-10.8,0-19.2-7.7-19.2-22.5V65.7
				h16.6v84.4C994.9,156.3,997.7,159.1,1002,159.1z"/>
		</g>
	</g>
	<g>
		<g>
			<path class="st0" d="M1098.3,65.7v107.9h-16.7v-13.2c-5.5,9-14.8,14-27.2,14c-22.3,0-37.1-16.1-37.1-39.7
				c0-23.3,15-39.1,36.8-39.1c12.5,0,21.8,5.1,27.5,14.1V65.7H1098.3z M1081.6,135.2c0-15-9.7-25.5-23.7-25.5
				c-14,0-23.7,10.6-23.9,25.5c0.1,14.7,9.7,25.2,23.9,25.2C1071.9,160.4,1081.6,149.9,1081.6,135.2z"/>
		</g>
	</g>
	<g>
		<g>
			<polygon class="st1" points="460,74.8 467.6,87.9 484.2,87.9 476.6,74.8 			"/>
		</g>
	</g>
	<g>
		<g>
			<polygon class="st1" points="587.9,74.8 595.4,87.9 612,87.9 604.4,74.8 			"/>
		</g>
	</g>
	<g>
		<g>
			<polygon class="st1" points="930.8,74.8 938.3,87.9 954.9,87.9 947.4,74.8 			"/>
		</g>
	</g>
	<g>
		<g>
			<polygon class="st1" points="676.9,126.3 684.5,139.4 734.4,139.4 726.8,126.3 			"/>
		</g>
	</g>
	<g>
		<g>
			<path class="st0" d="M660,159.2c-5.5,0-8.6-3.9-8.6-13.1v-34.5h22.5l-7.2-12.5h-15.2V77.9h-16.6v71.1c0,16.9,9.9,25.3,22.1,25.3
				c5.4,0,11.3-1.7,17-4.8l-6.8-11.8C664.4,158.8,662,159.2,660,159.2z"/>
		</g>
	</g>
</g>
<g>
	<g>
		<g>
			<polygon class="st0" points="205,48.7 149.3,48.7 91.6,131.7 149.3,214.8 205,214.8 262.7,131.7 			"/>
		</g>
	</g>
	<g>
		<g>
			<polygon class="st1" points="129,48.7 74.3,48.7 16.6,131.7 74.3,214.8 129,214.8 71.3,131.7 			"/>
		</g>
	</g>
	<g>
		<g>
			<polygon class="st2" points="202.6,48.7 147.9,48.7 90.2,131.7 147.9,214.8 202.6,214.8 144.9,131.7 			"/>
		</g>
	</g>
	<g>
		<g>
			<path class="st3" d="M203.3,216h-54c-0.4,0-0.8-0.2-1-0.5l-57.7-83.1c-0.3-0.4-0.3-1,0-1.4L148.3,48c0.2-0.3,0.6-0.5,1-0.5h54
				c0.5,0,0.9,0.3,1.1,0.7c0.2,0.4,0.2,0.9-0.1,1.3l-57.2,82.4l57.2,82.4c0.3,0.4,0.3,0.9,0.1,1.3C204.1,215.8,203.7,216,203.3,216z
				 M149.9,213.6h51l-56.4-81.2c-0.3-0.4-0.3-1,0-1.4l56.4-81.2h-51l-56.8,81.9L149.9,213.6z"/>
		</g>
	</g>
	<g>
		<g>
			<path class="st3" d="M129.6,216h-54c-0.4,0-0.8-0.2-1-0.5L17,132.4c-0.3-0.4-0.3-1,0-1.4L74.7,48c0.2-0.3,0.6-0.5,1-0.5h54
				c0.5,0,0.9,0.3,1.1,0.7c0.2,0.4,0.2,0.9-0.1,1.3l-57.2,82.4l57.2,82.4c0.3,0.4,0.3,0.9,0.1,1.3C130.5,215.8,130.1,216,129.6,216z
				 M76.3,213.6h51l-56.4-81.2c-0.3-0.4-0.3-1,0-1.4l56.4-81.2h-51l-56.8,81.9L76.3,213.6z"/>
		</g>
	</g>
	<g>
		<g>
			<path class="st3" d="M204.5,216h-54c-0.7,0-1.2-0.5-1.2-1.2c0-0.7,0.5-1.2,1.2-1.2h53.3l56.8-81.9l-56.8-81.9h-53.3
				c-0.7,0-1.2-0.5-1.2-1.2s0.5-1.2,1.2-1.2h54c0.4,0,0.8,0.2,1,0.5l57.7,83.1c0.3,0.4,0.3,1,0,1.4l-57.7,83.1
				C205.2,215.9,204.9,216,204.5,216z"/>
		</g>
	</g>
	<g>
		<g>
			<path class="st3" d="M72,133H18c-0.7,0-1.2-0.5-1.2-1.2c0-0.7,0.5-1.2,1.2-1.2h54c0.7,0,1.2,0.5,1.2,1.2
				C73.2,132.4,72.6,133,72,133z"/>
		</g>
	</g>
	<g>
		<g>
			<path class="st3" d="M145.6,133h-54c-0.7,0-1.2-0.5-1.2-1.2c0-0.7,0.5-1.2,1.2-1.2h54c0.7,0,1.2,0.5,1.2,1.2
				C146.8,132.4,146.2,133,145.6,133z"/>
		</g>
	</g>
	<g>
		<g>
			<path class="st3" d="M175,174.7c-0.2,0-0.5-0.1-0.7-0.2c-0.6-0.4-0.7-1.2-0.3-1.7l57.7-83.1c0.4-0.6,1.2-0.7,1.7-0.3
				c0.6,0.4,0.7,1.2,0.3,1.7L176,174.2C175.8,174.5,175.4,174.7,175,174.7z"/>
		</g>
	</g>
	<g>
		<g>
			<path class="st3" d="M100.7,174.7H47.4c-0.7,0-1.2-0.5-1.2-1.2s0.5-1.2,1.2-1.2h53.3c0.7,0,1.2,0.5,1.2,1.2
				S101.4,174.7,100.7,174.7z"/>
		</g>
	</g>
	<g>
		<g>
			<path class="st3" d="M102.3,88.8H49c-0.7,0-1.2-0.5-1.2-1.2c0-0.7,0.5-1.2,1.2-1.2h53.3c0.7,0,1.2,0.5,1.2,1.2
				C103.5,88.2,103,88.8,102.3,88.8z"/>
		</g>
	</g>
	<g>
		<g>
			<path class="st3" d="M174.3,174.7H121c-0.7,0-1.2-0.5-1.2-1.2s0.5-1.2,1.2-1.2h53.3c0.7,0,1.2,0.5,1.2,1.2S175,174.7,174.3,174.7
				z"/>
		</g>
	</g>
	<g>
		<g>
			<path class="st3" d="M175.9,88.8h-53.3c-0.7,0-1.2-0.5-1.2-1.2c0-0.7,0.5-1.2,1.2-1.2h53.3c0.7,0,1.2,0.5,1.2,1.2
				C177.1,88.2,176.6,88.8,175.9,88.8z"/>
		</g>
	</g>
	<g>
		<g>
			<path class="st4" d="M229,214.8"/>
		</g>
	</g>
	<g>
		<g>
			<path class="st3" d="M235.2,172.2c-0.4,0-0.8-0.2-1-0.5l-57.7-83.1c-0.4-0.6-0.2-1.3,0.3-1.7c0.6-0.4,1.3-0.3,1.7,0.3l57.7,83.1
				c0.4,0.6,0.2,1.3-0.3,1.7C235.6,172.2,235.4,172.2,235.2,172.2z"/>
		</g>
	</g>
</g>
</svg>
